<svg width="512" height="512" viewBox="0 0 512 512" fill="none" xmlns="http://www.w3.org/2000/svg">
  <!-- Fundo circular verde -->
  <circle cx="256" cy="256" r="256" fill="#16a34a"/>
  
  <!-- Folha principal -->
  <path d="M256 80C200 80 160 140 160 200C160 260 200 320 256 380C312 320 352 260 352 200C352 140 312 80 256 80Z" fill="#ffffff"/>
  
  <!-- Nervura da folha -->
  <path d="M256 100L256 360" stroke="#16a34a" stroke-width="4" stroke-linecap="round"/>
  
  <!-- Nervuras secundárias -->
  <path d="M256 140L220 160" stroke="#16a34a" stroke-width="2" stroke-linecap="round"/>
  <path d="M256 140L292 160" stroke="#16a34a" stroke-width="2" stroke-linecap="round"/>
  <path d="M256 180L210 200" stroke="#16a34a" stroke-width="2" stroke-linecap="round"/>
  <path d="M256 180L302 200" stroke="#16a34a" stroke-width="2" stroke-linecap="round"/>
  <path d="M256 220L220 240" stroke="#16a34a" stroke-width="2" stroke-linecap="round"/>
  <path d="M256 220L292 240" stroke="#16a34a" stroke-width="2" stroke-linecap="round"/>
  
  <!-- Texto Amanda -->
  <text x="256" y="420" font-family="serif" font-size="32" font-weight="bold" text-anchor="middle" fill="#ffffff">Amanda</text>
  <text x="256" y="450" font-family="serif" font-size="20" text-anchor="middle" fill="#dcfce7">Nutricionista</text>
</svg>